<?xml version="1.0" encoding="UTF-8" standalone="no"?>
<!-- Created with Inkscape (http://www.inkscape.org/) -->

<svg
   width="410.82373"
   height="458.62799"
   viewBox="0 0 410.82373 458.62799"
   version="1.1"
   id="svg5"
   xml:space="preserve"
   xmlns:inkscape="http://www.inkscape.org/namespaces/inkscape"
   xmlns:sodipodi="http://sodipodi.sourceforge.net/DTD/sodipodi-0.dtd"
   xmlns="http://www.w3.org/2000/svg"
   xmlns:svg="http://www.w3.org/2000/svg"><sodipodi:namedview
     id="namedview7"
     pagecolor="#ffffff"
     bordercolor="#666666"
     borderopacity="1.0"
     inkscape:showpageshadow="2"
     inkscape:pageopacity="0.0"
     inkscape:pagecheckerboard="0"
     inkscape:deskcolor="#d1d1d1"
     inkscape:document-units="px"
     showgrid="false" /><defs
     id="defs2" /><g
     inkscape:label="Layer 1"
     inkscape:groupmode="layer"
     id="layer1"
     transform="translate(-1314.2865,-679.78583)"><path
       style="fill:#000000;stroke-width:0.897196"
       d="m 1537.6368,1138.1554 c -45.9355,-5.6261 -79.0516,-21.0523 -108.577,-50.5777 -26.3776,-26.3776 -42.5494,-57.7638 -49.0102,-95.11899 -1.9024,-10.99973 -2.5624,-34.51164 -1.2846,-45.76999 2.3018,-20.2828 8.0623,-40.2465 16.6942,-57.85618 16.3121,-33.27792 42.3047,-59.9938 75.9386,-78.05149 l 7.4726,-4.01198 -10.0135,-0.015 c -15.7568,-0.0236 -24.8868,-3.8178 -32.5671,-13.53409 -5.5358,-7.00323 -7.2212,-12.71099 -7.848,-26.57691 l -0.5409,-11.96632 -4.5713,0.5344 c -34.656,4.05136 -65.4821,26.07892 -81.5268,58.2569 -9.9728,20.00073 -12.971,46.90534 -7.5998,68.1975 l 2.0132,7.98066 5.9546,1.08793 c 13.0568,2.38557 20.9347,11.65123 20.8863,24.56568 -0.053,14.15265 -12.2643,25.26648 -26.3571,23.98858 -9.2183,-0.83588 -16.461,-6.10052 -20.4851,-14.89034 -3.6102,-7.88581 -2.016,-18.81013 3.6495,-25.00754 l 1.8309,-2.00277 -2.4262,-9.82102 c -7.0814,-28.66535 -3.0468,-60.60747 10.8894,-86.21083 17.454,-32.06625 49.7651,-55.13532 85.011,-60.69515 4.9345,-0.77839 9.8243,-1.5649 10.8661,-1.74778 1.8155,-0.31869 1.9146,-0.95798 2.3832,-15.3747 0.5509,-16.95111 1.4354,-20.82743 6.4897,-28.44204 4,-6.02622 9.4724,-10.43462 16.4606,-13.25999 l 5.0714,-2.05044 h 95.1028 95.1028 l 5.0714,2.05044 c 6.9528,2.81109 12.4566,7.22773 16.3884,13.15125 6.2393,9.39982 6.3548,10.29182 6.3405,48.94784 -0.013,33.97715 -0.047,34.62646 -2.0838,39.70281 -4.1736,10.39962 -13.0137,18.5658 -23.4545,21.66637 -3.1362,0.93136 -8.314,1.43982 -14.7613,1.44956 l -9.9306,0.015 7.4726,4.01198 c 33.6339,18.05769 59.6265,44.77357 75.9386,78.05149 17.8958,36.50879 22.2412,78.97312 12.1649,118.87856 -7.6172,30.1666 -23.1202,57.2213 -45.7655,79.8666 -26.4392,26.4392 -58.4364,42.7415 -96.0162,48.9194 -8.3156,1.3671 -34.1038,2.4263 -40.3738,1.6583 z m 35.1841,-16.9992 c 63.0103,-8.6875 115.6548,-55.2826 131.2286,-116.1492 6.5633,-25.65108 6.7323,-54.3971 0.4642,-78.94682 -11.3858,-44.59388 -41.9814,-82.14264 -83.8863,-102.95041 -21.5477,-10.69946 -43.364,-15.64646 -69.0841,-15.66531 -36.0618,-0.0264 -66.7316,10.28104 -95.5514,32.11273 -50.646,38.36561 -72.9199,103.05204 -56.9614,165.42371 11.1008,43.3862 41.5264,80.5792 82.9587,101.411 26.9336,13.5419 60.3279,18.97 90.8317,14.7643 z m -32.8224,-127.27118 c -7.675,-3.22046 -12.4658,-7.67834 -16.4779,-15.33285 -3.3696,-6.42884 -3.8986,-17.6273 -1.174,-24.8538 8.16,-21.6431 36.9494,-26.82121 52.5638,-9.45425 5.7463,6.39128 7.8497,12.71508 7.3826,22.1959 -0.4436,9.00447 -2.7975,14.44159 -8.9149,20.59184 -5.7359,5.7667 -12.1735,8.47119 -20.9376,8.79606 -5.9912,0.22208 -8.0477,-0.0991 -12.442,-1.9429 z m 21.023,-16.71967 c 2.9762,-2.11922 6.2303,-8.48278 6.203,-12.13009 -0.031,-4.13647 -3.0593,-9.77867 -6.766,-12.60594 -2.8899,-2.20416 -4.2104,-2.58743 -8.9152,-2.58743 -4.7048,0 -6.0253,0.38327 -8.9152,2.58743 -3.7067,2.82727 -6.7351,8.46947 -6.766,12.60594 -0.027,3.66688 3.2324,10.01484 6.2443,12.15948 5.2677,3.75096 13.6243,3.73797 18.9151,-0.0294 z m 109.7274,-5.49412 c -2.9322,-1.4198 -3.6672,-3.86209 -4.7296,-15.71586 -1.0751,-11.99627 -2.4915,-18.99328 -5.778,-28.54339 -7.4315,-21.59559 -21.8011,-41.30221 -39.3158,-53.91825 -10.4697,-7.54141 -12.4102,-9.56212 -12.4102,-12.92287 0,-3.69087 4.2211,-8.07321 7.7814,-8.0786 4.0347,-0.006 16.7105,9.22064 27.7191,20.1768 22.9668,22.85728 36.1664,51.9409 37.7889,83.26261 0.5987,11.55821 -0.01,14.02073 -3.8975,15.79243 -2.6338,1.20006 -4.6008,1.18553 -7.1583,-0.0528 z M 1570.3844,851.58138 c -1.9738,-0.38961 -7.4243,-0.99745 -12.1121,-1.35076 -8.7037,-0.65598 -11.2744,-1.42245 -13.2051,-3.93715 -1.8253,-2.37734 -1.3479,-6.92526 1.0153,-9.67258 2.1184,-2.46282 2.3456,-2.51193 10.4932,-2.26843 13.2751,0.39675 24.091,2.44797 26.7082,5.06522 3.0397,3.03968 2.8703,8.25231 -0.3594,11.05972 -2.461,2.13916 -5.8044,2.43349 -12.5401,1.10398 z m -225.5758,69.17064 c 3.5672,-3.56725 3.5744,-7.83222 0.02,-11.63767 -3.3821,-3.62049 -7.7268,-3.79294 -11.6834,-0.46374 -2.2897,1.92665 -2.7604,2.97678 -2.7604,6.15804 0,8.0193 8.745,11.62259 14.4242,5.94337 z m 301.8253,-131.32679 c 4.5638,-2.05814 7.3185,-4.6458 9.7444,-9.15344 1.8789,-3.49128 1.9314,-4.50289 1.9314,-37.23364 v -33.64486 l -2.5169,-4.28178 c -1.3843,-2.35497 -4.181,-5.38301 -6.2149,-6.72897 l -3.6979,-2.4472 h -94.3367 -94.3367 l -3.6979,2.4472 c -2.0339,1.34596 -4.8306,4.374 -6.2149,6.72897 l -2.5169,4.28178 v 33.64486 c 0,31.12632 0.1254,33.87992 1.6751,36.78504 3.38,6.33659 7.3933,9.34651 14.3187,10.7391 2.0595,0.41413 43.9165,0.69061 93.0156,0.61441 83.8259,-0.1301 89.4892,-0.23693 92.8476,-1.75147 z m -178.0813,-26.64877 v -8.07476 h 82.9907 82.9907 v 8.07476 8.07477 h -82.9907 -82.9907 z m 0,-39.47663 v -8.07477 h 82.9907 82.9907 v 8.07477 8.07476 h -82.9907 -82.9907 z"
       id="path1048841" /></g></svg>
